<?xml version="1.0" encoding="UTF-8" standalone="no"?>
<!DOCTYPE svg PUBLIC "-//W3C//DTD SVG 1.1//EN" "http://www.w3.org/Graphics/SVG/1.1/DTD/svg11.dtd">
<svg width="100%" height="100%" viewBox="0 0 550 550" version="1.1" xmlns="http://www.w3.org/2000/svg" xmlns:xlink="http://www.w3.org/1999/xlink" xml:space="preserve" xmlns:serif="http://www.serif.com/" style="fill-rule:evenodd;clip-rule:evenodd;stroke-linejoin:round;stroke-miterlimit:2;">
    <g transform="matrix(1,0,0,1,-125,-125)">
        <path d="M187.5,125C153.32,125 125,153.32 125,187.5L125,612.5C125,646.68 153.32,675 187.5,675L612.5,675C646.68,675 675,646.68 675,612.5L675,187.5C675,153.32 646.68,125 612.5,125L187.5,125ZM187.5,175L612.5,175C619.629,175 625,180.371 625,187.5L625,612.5C625,619.629 619.629,625 612.5,625L187.5,625C180.371,625 175,619.629 175,612.5L175,187.5C175,180.371 180.371,175 187.5,175ZM260.938,217.969C237.207,217.969 217.969,237.207 217.969,260.938C217.969,284.668 237.207,303.906 260.938,303.906C284.668,303.906 303.906,284.668 303.906,260.938C303.906,237.207 284.668,217.969 260.938,217.969ZM486.719,332.031C450.879,332.031 427.051,351.66 417.188,370.313L415.625,370.313L415.625,337.5L345.313,337.5L345.313,575L418.75,575L418.75,457.813C418.75,426.855 424.902,396.875 463.281,396.875C501.074,396.875 501.563,431.836 501.563,459.375L501.563,575L575,575L575,444.531C575,380.664 561.426,332.031 486.719,332.031ZM225,337.5L225,575L299.219,575L299.219,337.5L225,337.5Z" style="fill-rule:nonzero;"/>
    </g>
</svg>
