<?xml version="1.0" encoding="UTF-8" standalone="no"?>
<!DOCTYPE svg PUBLIC "-//W3C//DTD SVG 1.1//EN" "http://www.w3.org/Graphics/SVG/1.1/DTD/svg11.dtd">
<svg width="100%" height="100%" viewBox="0 0 625 625" version="1.1" xmlns="http://www.w3.org/2000/svg" xmlns:xlink="http://www.w3.org/1999/xlink" xml:space="preserve" xmlns:serif="http://www.serif.com/" style="fill-rule:evenodd;clip-rule:evenodd;stroke-linejoin:round;stroke-miterlimit:2;">
    <g transform="matrix(1,0,0,1,-87.5,-87.5)">
        <path d="M687.5,87.5L112.5,87.5C98.672,87.5 87.5,98.672 87.5,112.5L87.5,687.5C87.5,701.328 98.672,712.5 112.5,712.5L687.5,712.5C701.328,712.5 712.5,701.328 712.5,687.5L712.5,112.5C712.5,98.672 701.328,87.5 687.5,87.5ZM662.5,662.5L518.672,662.5L518.672,470.469L599.922,470.469L612.109,376.172L518.672,376.172L518.672,315.938C518.672,288.594 526.25,270 565.391,270L615.312,270L615.312,185.625C606.641,184.453 577.031,181.875 542.5,181.875C470.469,181.875 421.172,225.859 421.172,306.563L421.172,376.094L339.766,376.094L339.766,470.391L421.25,470.391L421.25,662.5L137.5,662.5L137.5,137.5L662.5,137.5L662.5,662.5Z" style="fill-rule:nonzero;"/>
    </g>
</svg>
