<?xml version="1.0" encoding="UTF-8" standalone="no"?>
<!DOCTYPE svg PUBLIC "-//W3C//DTD SVG 1.1//EN" "http://www.w3.org/Graphics/SVG/1.1/DTD/svg11.dtd">
<svg width="100%" height="100%" viewBox="0 0 3525 989" version="1.1" xmlns="http://www.w3.org/2000/svg" xmlns:xlink="http://www.w3.org/1999/xlink" xml:space="preserve" xmlns:serif="http://www.serif.com/" style="fill-rule:evenodd;clip-rule:evenodd;stroke-linejoin:round;stroke-miterlimit:2;">
    <g transform="matrix(1,0,0,1,-260.117,-382.957)">
        <g transform="matrix(1,0,0,1,-72.3901,-275.083)">
            <g transform="matrix(1083.33,0,0,1083.33,126.737,1423.99)">
                <path d="M0.271,-0.154C0.282,-0.154 0.293,-0.152 0.302,-0.147C0.312,-0.143 0.321,-0.137 0.328,-0.13C0.336,-0.122 0.341,-0.114 0.346,-0.104C0.35,-0.094 0.352,-0.083 0.352,-0.072C0.352,-0.061 0.35,-0.05 0.346,-0.041C0.341,-0.031 0.336,-0.022 0.328,-0.015C0.321,-0.008 0.312,-0.002 0.302,0.002C0.293,0.007 0.282,0.009 0.271,0.009C0.26,0.009 0.249,0.007 0.239,0.002C0.229,-0.002 0.221,-0.008 0.214,-0.015C0.206,-0.022 0.201,-0.031 0.196,-0.041C0.192,-0.05 0.19,-0.061 0.19,-0.072C0.19,-0.083 0.192,-0.094 0.196,-0.104C0.201,-0.114 0.206,-0.122 0.214,-0.13C0.221,-0.137 0.229,-0.143 0.239,-0.147C0.249,-0.152 0.26,-0.154 0.271,-0.154Z" style="fill:white;fill-rule:nonzero;"/>
            </g>
            <g transform="matrix(1083.33,0,0,1083.33,505.692,1423.99)">
                <path d="M0.532,-0.49L0.461,-0L0.358,-0L0.287,-0.205L0.273,-0.255L0.257,-0.202L0.189,-0L0.089,-0L0.018,-0.49L0.101,-0.49L0.142,-0.157L0.151,-0.083L0.172,-0.148L0.243,-0.368L0.304,-0.368L0.381,-0.151L0.403,-0.086L0.41,-0.155L0.448,-0.49L0.532,-0.49Z" style="fill:white;fill-rule:nonzero;"/>
            </g>
            <g transform="matrix(833.333,0,0,833.333,1101.31,1423.99)">
                <path d="M0.48,-0.194C0.48,-0.166 0.474,-0.14 0.463,-0.115C0.451,-0.09 0.434,-0.069 0.412,-0.051C0.389,-0.032 0.36,-0.018 0.326,-0.007C0.291,0.003 0.251,0.009 0.205,0.009C0.18,0.009 0.157,0.008 0.137,0.006C0.117,0.005 0.098,0.003 0.08,-0L0.08,-0.076C0.1,-0.073 0.122,-0.07 0.144,-0.068C0.167,-0.066 0.189,-0.065 0.213,-0.065C0.245,-0.065 0.272,-0.068 0.295,-0.073C0.317,-0.079 0.336,-0.087 0.35,-0.098C0.364,-0.109 0.375,-0.122 0.381,-0.137C0.388,-0.153 0.391,-0.17 0.391,-0.189C0.391,-0.207 0.387,-0.222 0.379,-0.235C0.372,-0.248 0.361,-0.259 0.346,-0.268C0.332,-0.276 0.315,-0.283 0.296,-0.287C0.276,-0.292 0.254,-0.294 0.231,-0.294L0.158,-0.294L0.158,-0.364L0.232,-0.364C0.251,-0.364 0.269,-0.366 0.284,-0.371C0.3,-0.376 0.314,-0.384 0.325,-0.393C0.336,-0.403 0.345,-0.414 0.351,-0.428C0.357,-0.442 0.36,-0.458 0.36,-0.475C0.36,-0.509 0.349,-0.534 0.329,-0.55C0.308,-0.565 0.277,-0.573 0.237,-0.573C0.215,-0.573 0.193,-0.571 0.17,-0.567C0.148,-0.563 0.123,-0.556 0.097,-0.548L0.097,-0.622C0.108,-0.626 0.12,-0.629 0.133,-0.633C0.145,-0.636 0.158,-0.638 0.17,-0.64C0.183,-0.642 0.195,-0.644 0.208,-0.645C0.22,-0.646 0.232,-0.647 0.243,-0.647C0.277,-0.647 0.307,-0.643 0.333,-0.636C0.358,-0.629 0.38,-0.618 0.397,-0.604C0.414,-0.591 0.427,-0.574 0.436,-0.555C0.445,-0.535 0.449,-0.513 0.449,-0.489C0.449,-0.452 0.44,-0.422 0.421,-0.397C0.402,-0.372 0.377,-0.353 0.344,-0.338C0.361,-0.335 0.377,-0.33 0.393,-0.322C0.409,-0.314 0.424,-0.304 0.437,-0.292C0.45,-0.28 0.46,-0.266 0.468,-0.249C0.476,-0.232 0.48,-0.214 0.48,-0.194Z" style="fill:white;fill-rule:nonzero;"/>
            </g>
            <g transform="matrix(1083.33,0,0,1083.33,1559.48,1423.99)">
                <path d="M0.532,-0.49L0.461,-0L0.358,-0L0.287,-0.205L0.273,-0.255L0.257,-0.202L0.189,-0L0.089,-0L0.018,-0.49L0.101,-0.49L0.142,-0.157L0.151,-0.083L0.172,-0.148L0.243,-0.368L0.304,-0.368L0.381,-0.151L0.403,-0.086L0.41,-0.155L0.448,-0.49L0.532,-0.49Z" style="fill:white;fill-rule:nonzero;"/>
            </g>
            <g transform="matrix(1083.33,0,0,1083.33,2155.11,1423.99)">
                <path d="M0.431,-0.421C0.44,-0.41 0.447,-0.396 0.452,-0.381C0.457,-0.366 0.46,-0.35 0.46,-0.332C0.46,-0.307 0.455,-0.283 0.446,-0.262C0.437,-0.241 0.424,-0.223 0.407,-0.208C0.39,-0.194 0.37,-0.182 0.346,-0.174C0.322,-0.165 0.296,-0.161 0.268,-0.161C0.248,-0.161 0.228,-0.163 0.21,-0.168C0.193,-0.172 0.178,-0.178 0.168,-0.184C0.162,-0.175 0.157,-0.166 0.152,-0.158C0.148,-0.15 0.146,-0.141 0.146,-0.131C0.146,-0.118 0.152,-0.108 0.164,-0.1C0.176,-0.092 0.191,-0.088 0.211,-0.087L0.34,-0.082C0.364,-0.081 0.387,-0.078 0.407,-0.073C0.428,-0.067 0.446,-0.059 0.461,-0.049C0.476,-0.038 0.487,-0.026 0.495,-0.01C0.504,0.005 0.508,0.023 0.508,0.043C0.508,0.065 0.503,0.085 0.494,0.105C0.484,0.125 0.47,0.142 0.45,0.156C0.43,0.171 0.405,0.183 0.375,0.192C0.345,0.201 0.309,0.205 0.267,0.205C0.227,0.205 0.194,0.202 0.166,0.196C0.138,0.189 0.115,0.18 0.097,0.169C0.079,0.158 0.066,0.145 0.058,0.129C0.05,0.114 0.046,0.097 0.046,0.078C0.046,0.054 0.051,0.034 0.063,0.016C0.074,-0.002 0.091,-0.02 0.114,-0.036C0.105,-0.04 0.098,-0.045 0.092,-0.051C0.086,-0.057 0.081,-0.063 0.077,-0.07C0.073,-0.077 0.07,-0.084 0.068,-0.092C0.066,-0.1 0.065,-0.108 0.065,-0.115C0.065,-0.136 0.07,-0.156 0.08,-0.173C0.09,-0.191 0.102,-0.208 0.115,-0.223C0.109,-0.231 0.104,-0.238 0.099,-0.245C0.094,-0.252 0.09,-0.26 0.087,-0.268C0.083,-0.277 0.081,-0.286 0.079,-0.295C0.077,-0.305 0.076,-0.316 0.076,-0.328C0.076,-0.354 0.081,-0.377 0.09,-0.398C0.099,-0.419 0.112,-0.437 0.129,-0.452C0.146,-0.467 0.166,-0.478 0.19,-0.487C0.213,-0.495 0.239,-0.499 0.268,-0.499C0.28,-0.499 0.292,-0.498 0.303,-0.497C0.314,-0.495 0.324,-0.493 0.332,-0.49L0.51,-0.49L0.51,-0.421L0.431,-0.421ZM0.136,0.071C0.136,0.094 0.148,0.111 0.172,0.121C0.196,0.132 0.23,0.137 0.273,0.137C0.3,0.137 0.323,0.135 0.341,0.13C0.359,0.125 0.374,0.119 0.385,0.111C0.397,0.103 0.405,0.094 0.41,0.083C0.415,0.073 0.417,0.062 0.417,0.052C0.417,0.032 0.409,0.017 0.393,0.008C0.376,-0.002 0.351,-0.007 0.318,-0.009L0.19,-0.013C0.179,-0.006 0.17,0.001 0.163,0.008C0.156,0.015 0.151,0.022 0.147,0.029C0.143,0.036 0.14,0.043 0.139,0.05C0.137,0.057 0.136,0.064 0.136,0.071ZM0.162,-0.33C0.162,-0.314 0.165,-0.3 0.17,-0.287C0.175,-0.274 0.182,-0.263 0.192,-0.254C0.201,-0.245 0.212,-0.238 0.225,-0.233C0.238,-0.228 0.252,-0.225 0.268,-0.225C0.285,-0.225 0.3,-0.228 0.313,-0.234C0.326,-0.239 0.337,-0.247 0.346,-0.257C0.355,-0.267 0.362,-0.278 0.367,-0.291C0.372,-0.303 0.374,-0.316 0.374,-0.33C0.374,-0.346 0.371,-0.36 0.366,-0.373C0.361,-0.386 0.354,-0.397 0.344,-0.406C0.335,-0.415 0.324,-0.422 0.311,-0.427C0.298,-0.433 0.284,-0.435 0.268,-0.435C0.251,-0.435 0.236,-0.432 0.223,-0.426C0.21,-0.42 0.199,-0.413 0.19,-0.403C0.181,-0.393 0.174,-0.382 0.169,-0.37C0.164,-0.357 0.162,-0.344 0.162,-0.33Z" style="fill:white;fill-rule:nonzero;"/>
            </g>
            <g transform="matrix(1083.33,0,0,1083.33,2750.73,1423.99)">
                <path d="M0.438,0.2L0.402,0.2C0.339,0.2 0.292,0.185 0.262,0.156C0.231,0.127 0.216,0.082 0.216,0.022L0.216,-0.146C0.216,-0.162 0.214,-0.176 0.21,-0.189C0.207,-0.201 0.201,-0.212 0.192,-0.22C0.183,-0.229 0.171,-0.236 0.156,-0.24C0.141,-0.245 0.123,-0.247 0.1,-0.247L0.079,-0.247L0.079,-0.315L0.1,-0.315C0.124,-0.315 0.143,-0.317 0.158,-0.321C0.173,-0.325 0.185,-0.331 0.193,-0.339C0.202,-0.347 0.208,-0.357 0.211,-0.369C0.214,-0.382 0.216,-0.396 0.216,-0.413L0.216,-0.529C0.216,-0.556 0.219,-0.581 0.226,-0.603C0.232,-0.625 0.243,-0.643 0.258,-0.659C0.272,-0.674 0.292,-0.686 0.315,-0.695C0.339,-0.703 0.368,-0.707 0.402,-0.707L0.438,-0.707L0.438,-0.639L0.409,-0.639C0.334,-0.639 0.296,-0.602 0.296,-0.529L0.296,-0.415C0.296,-0.336 0.262,-0.291 0.193,-0.281C0.262,-0.274 0.297,-0.229 0.297,-0.147L0.297,0.02C0.297,0.095 0.334,0.132 0.409,0.132L0.438,0.132L0.438,0.2Z" style="fill:white;fill-rule:nonzero;"/>
            </g>
            <g transform="matrix(1083.33,0,0,1083.33,3346.35,1423.99)">
                <path d="M0.112,-0.707L0.148,-0.707C0.211,-0.707 0.257,-0.692 0.288,-0.663C0.319,-0.633 0.334,-0.589 0.334,-0.529L0.334,-0.416C0.334,-0.4 0.336,-0.386 0.339,-0.373C0.343,-0.361 0.349,-0.35 0.358,-0.342C0.367,-0.333 0.379,-0.326 0.394,-0.322C0.409,-0.317 0.428,-0.315 0.45,-0.315L0.471,-0.315L0.471,-0.247L0.45,-0.247C0.426,-0.247 0.407,-0.245 0.392,-0.241C0.377,-0.237 0.365,-0.231 0.356,-0.223C0.348,-0.215 0.342,-0.205 0.339,-0.193C0.336,-0.181 0.334,-0.166 0.334,-0.149L0.334,0.022C0.334,0.049 0.331,0.074 0.324,0.096C0.318,0.118 0.307,0.137 0.292,0.152C0.278,0.168 0.259,0.179 0.235,0.188C0.211,0.196 0.182,0.2 0.148,0.2L0.112,0.2L0.112,0.132L0.141,0.132C0.216,0.132 0.254,0.095 0.254,0.022L0.254,-0.147C0.254,-0.226 0.288,-0.271 0.357,-0.281C0.288,-0.288 0.253,-0.333 0.253,-0.415L0.253,-0.527C0.253,-0.601 0.216,-0.639 0.141,-0.639L0.112,-0.639L0.112,-0.707Z" style="fill:white;fill-rule:nonzero;"/>
            </g>
        </g>
    </g>
</svg>
